<svg xmlns="http://www.w3.org/2000/svg" viewBox="0 0 168.33 138.27"><defs><style>.cls-1{fill:#f0fff4;fill-rule:evenodd;}</style></defs><g id="Layer_2" data-name="Layer 2"><g id="Text_boxes" data-name="Text boxes"><path class="cls-1" d="M135.27,72.14a33.07,33.07,0,1,1-33.07,33.07A33.07,33.07,0,0,1,135.27,72.14Zm-102.2,0A33.07,33.07,0,1,1,0,105.21,33.07,33.07,0,0,1,33.07,72.14Zm102.2,8.27a24.8,24.8,0,1,1-24.8,24.8A24.83,24.83,0,0,1,135.27,80.41Zm-102.2,0a24.8,24.8,0,1,1-24.8,24.8A24.82,24.82,0,0,1,33.07,80.41ZM40.6,60.64a11.85,11.85,0,0,1-1-1.44,12.49,12.49,0,0,1,4.56-17.06L82.84,19.83A12.47,12.47,0,0,1,101,34.21l11.09,19.2h15.13a6.05,6.05,0,0,1,6,4.36A5.82,5.82,0,0,1,127.61,65H108.7a5.62,5.62,0,0,1-4.22-1.86,5.15,5.15,0,0,1-.9-1.16l-11-19L64,59.53,99.72,74a5.77,5.77,0,0,1,3.19,7.53.07.07,0,0,1,0,.07,4.43,4.43,0,0,1-.48,1L83.73,114.24a5.78,5.78,0,1,1-10-5.88L89.21,82.21,46.75,65.08A10.81,10.81,0,0,1,40.6,60.64ZM81.71,17.86A3,3,0,0,0,83,16.13a3,3,0,0,0-.3-2.18c0-.1-.13-.2-.18-.32A8.84,8.84,0,0,0,77.2,9.54a8.71,8.71,0,0,0-6.66.88l-24,13.8A3,3,0,0,0,45.26,26a2.85,2.85,0,0,0,.28,2.18c1,1.65,2.23,3.83,3.18,5.49a2.82,2.82,0,0,0,3.88,1C58.89,31,75.42,21.47,81.71,17.86ZM120,11.8V12a11.85,11.85,0,0,1-7.57,11.23,12.06,12.06,0,1,1,1.44-21.7.22.22,0,0,1,.15.08L132.72,12Z"/></g></g></svg>