<svg xmlns="http://www.w3.org/2000/svg" viewBox="0 0 193.98 143.96"><defs><style>.cls-1{fill:#f0fff4;}</style></defs><g id="Layer_2" data-name="Layer 2"><g id="Text_boxes" data-name="Text boxes"><path class="cls-1" d="M190.21,111.25a4.15,4.15,0,0,0-4.31,4.27,4.5,4.5,0,0,0,1,2.76v5.89L175,107.4h0v0L99.88,1.43a.61.61,0,0,0-.13-.16,2,2,0,0,0-.39-.43.09.09,0,0,0-.09-.06,3.14,3.14,0,0,0-4.14,0A.09.09,0,0,0,95,.84a2,2,0,0,0-.39.43.46.46,0,0,0-.13.16l-75.11,106h0v0L7.52,124.2v-5.91a4.18,4.18,0,0,0,1-2.6A4.28,4.28,0,1,0,0,115.51a4.3,4.3,0,0,0,1,2.76v22.25a3.28,3.28,0,0,0,2.77,3.3,3.23,3.23,0,0,0,3.71-3.2v-5.14l11.16-15.92v21.16A3.24,3.24,0,0,0,21.92,144H172.11a3.24,3.24,0,0,0,3.24-3.24V119.56l11.17,15.92.36,5.17a3.15,3.15,0,0,0,2.62,3.16,3.12,3.12,0,0,0,3.5-3.2V118.28a4.31,4.31,0,0,0,1-2.79A4.19,4.19,0,0,0,190.21,111.25ZM56.72,137.48,97.05,63.16l40.34,74.32Z"/></g></g></svg>