<svg xmlns="http://www.w3.org/2000/svg" viewBox="0 0 1325 3486.06"><defs><style>.cls-1{fill:#278558;}.cls-2{fill:#c6c9e3;}.cls-3{fill:#b8b8e6;}.cls-4{fill:#a3e2ff;}</style></defs><g id="Layer_2" data-name="Layer 2"><g id="Main_layer" data-name="Main layer"><polygon class="cls-1" points="1209.18 0 901.71 28.5 864 289.55 805 289.55 780 40.55 502 65.55 0 169.55 0 580.55 481.84 616.58 409 3120.55 1325 3120.55 1209.18 0"/><polygon class="cls-1" points="901.71 28.5 864 289.55 882.86 724.11 934 1358.55 1075 1043.55 1088 266.55 1130.07 236.17 1196 618.55 1209.18 0 901.71 28.5"/><polyline class="cls-1" points="779 40.55 816.93 392.38 773 417.55 699 217.55 645 206.55 607.5 289.55 422 342.57 411.79 88.58 493.24 67.16 779 40.55"/><polygon class="cls-1" points="510.98 1448.18 679 1560.65 679 2063.38 754.2 2180.92 878.35 2256.02 789.1 3486.06 531.48 3486.06 510.98 1448.18"/><path class="cls-1" d="M944,1812.05c15.79-202.37,19-438,12.88-508.27s-20.07-71.62-19.88-128.73,12-50,19-118-29.5-190.5-45.59-253.5-18.69-190.78-11.45-268c9-96-35-246-35-246H805s32.44,206.5,14.74,291S885,796.05,885,966.05s-36.56,156.06-20.28,249.53S901,1282.05,901,1420.05s-14,454-68,659-64.33,1042.5-64.33,1042.5h96s-24-415.2-5.72-565.5c0,0,5-125,26-209,9-36.1,9-144,16-218S933,1953.05,944,1812.05Z"/><polygon class="cls-2" points="1209.18 0 901.71 28.5 864 289.55 805 289.55 780 40.55 502 65.55 0 169.55 0 580.55 481.84 616.58 409 3120.55 1325 3120.55 1209.18 0"/><polygon class="cls-3" points="901.71 28.5 864 289.55 882.86 724.11 934 1358.55 1075 1043.55 1088 266.55 1130.07 236.17 1196 618.55 1209.18 0 901.71 28.5"/><polyline class="cls-3" points="779 40.55 816.93 392.38 773 417.55 699 217.55 645 206.55 607.5 289.55 422 342.57 411.79 88.58 493.24 67.16 779 40.55"/><polygon class="cls-3" points="510.98 1448.18 679 1560.65 679 2063.38 754.2 2180.92 878.35 2256.02 789.1 3486.06 531.48 3486.06 510.98 1448.18"/><path class="cls-4" d="M944,1812.05c15.79-202.37,19-438,12.88-508.27s-20.07-71.62-19.88-128.73,12-50,19-118-29.5-190.5-45.59-253.5-18.69-190.78-11.45-268c9-96-35-246-35-246H805s32.44,206.5,14.74,291S885,796.05,885,966.05s-36.56,156.06-20.28,249.53S901,1282.05,901,1420.05s-14,454-68,659-64.33,1042.5-64.33,1042.5h96s-24-415.2-5.72-565.5c0,0,5-125,26-209,9-36.1,9-144,16-218S933,1953.05,944,1812.05Z"/></g></g></svg>