<svg xmlns="http://www.w3.org/2000/svg" viewBox="0 0 2291.5 1370.7"><defs><style>.cls-1,.cls-2,.cls-3,.cls-5,.cls-6,.cls-7{fill:#fff;}.cls-1{opacity:0.71;}.cls-2{opacity:0.9;}.cls-3{opacity:0.31;}.cls-4{opacity:0.73;}.cls-6{opacity:0.75;}.cls-7{opacity:0.83;}</style></defs><g id="Layer_2" data-name="Layer 2"><g id="clouds"><path class="cls-1" d="M347,1119.13l-.06,0Zm150.59-53h0a34.68,34.68,0,0,0-25.82-58.37,41.76,41.76,0,0,0-.86-5.26,42.2,42.2,0,0,0-76.74-13.33,20.08,20.08,0,0,0-2,.34,19.36,19.36,0,0,0-1.9,37.22,41.9,41.9,0,0,0,7.2,12.29,32,32,0,0,0-18.57,36.48c0,.07,0,.14,0,.2a19.37,19.37,0,0,0-2.67.4,17.74,17.74,0,0,0-7.91,30.51s-19.14,10.38-31.79,14.85l173.34-39.33C501.11,1082.74,496.55,1075.5,497.54,1066.13Z"/><path class="cls-2" d="M669.9,374.53l0-.16h0c-.24-.94-1.85-5.95-9.33-7l-7.79-1.24c-9.53-2.35-20.22-16.44-9.41-28.39,18.6-21.71,30.2-50.07,23.15-81.27A87.84,87.84,0,0,0,495.23,256a27.32,27.32,0,0,0,.92,47.59,36.56,36.56,0,0,0-6.43.84,35.44,35.44,0,0,0-16.6,8.85,48.8,48.8,0,0,0-65.54,72,47.63,47.63,0,0,0-4.43,33c.25,1.11.55,2.2.87,3.27l-91.67,34Z"/><path class="cls-2" d="M2048.9,227.5l0-.12h0c-.18-.7-1.38-4.45-7-5.22l-5.82-.93c-7.13-1.75-15.13-12.29-7-21.23,13.91-16.23,22.59-37.44,17.31-60.78a65.69,65.69,0,0,0-128.07-.36,20.43,20.43,0,0,0,.69,35.59,27.58,27.58,0,0,0-4.81.63,26.64,26.64,0,0,0-12.42,6.62,36.49,36.49,0,0,0-49,53.85,35.56,35.56,0,0,0-3.32,24.69c.19.83.41,1.65.66,2.45l-68.56,25.43Z"/><path class="cls-3" d="M2233.23,1182.79a140.54,140.54,0,0,0,26.37-203,212.3,212.3,0,0,0,11.62-132.83c-26.94-114.68-141.74-185.81-256.42-158.87S1829,829.79,1855.92,944.47a214.21,214.21,0,0,0,11.74,35.65c-27.87-9.63-59.8-4.2-87.44,34.75-54.16,76.33,3.46,142.58,3.46,142.58s-79.82-18.07-107.71,44.68,23.76,95.48,38.36,101.43c-21.67,27.06-118.34,67.14-118.34,67.14l669.72-160.42S2234.77,1200.11,2233.23,1182.79Z"/><g class="cls-4"><path class="cls-5" d="M1422.3,1329.74l-.07,0Z"/><path class="cls-5" d="M1843.16,1062.41c-13.51.64-29.31-10.08-22.92-27.3a53.33,53.33,0,0,0,5.92-39.27c-6.1-27.12-30.51-44.73-54.54-39.33-15.14,3.4-26.51,15.13-31.32,30.13-7.53-11.32-20.39-17.55-33.11-14.69a28.81,28.81,0,0,0-13.45,7.21,44.61,44.61,0,0,0-19.07.1c-26.72,6-42.89,35.32-36.11,65.49,0,.11.06.23.08.34a24.67,24.67,0,0,0-4.14.57c-14.82,3.33-23.79,19.59-20,36.32a33.72,33.72,0,0,0,8.88,16.4h0c-4.72,15.95-47.75,28.93-48.77,29.16Z"/></g><path class="cls-6" d="M704,983.22s-1-5.13-8-6.1l-6.64-1.06c-8.13-2-17.25-14-8-24.22,15.87-18.52,25.77-42.72,19.75-69.34a74.95,74.95,0,0,0-146.11-.41,23.3,23.3,0,0,0,.78,40.6,31.54,31.54,0,0,0-5.49.72A30.4,30.4,0,0,0,536,931a41.63,41.63,0,0,0-55.91,61.44,40.67,40.67,0,0,0-3.79,28.17c.23,1,.49,1.94.78,2.89l-78.48,29.12Z"/><path class="cls-3" d="M1938.09,326.34s-1.24-6.74-10.51-8l-8.73-1.4c-10.7-2.63-22.69-18.44-10.57-31.85,20.88-24.36,33.89-56.17,26-91.18a98.56,98.56,0,0,0-192.13-.54,30.65,30.65,0,0,0,1,53.39,39.93,39.93,0,0,0-25.84,10.88,54.75,54.75,0,0,0-73.53,80.78,53.45,53.45,0,0,0-5,37c.3,1.29.65,2.56,1,3.81l-103.2,38.28Z"/><path class="cls-7" d="M501.53,337.65a94.82,94.82,0,0,0,17.8-137,143.88,143.88,0,1,0-264.45.25c-18.81-6.5-40.34-2.84-59,23.44-36.54,51.5,2.34,96.2,2.34,96.2s-53.86-12.19-72.68,30.14,25.89,68.44,25.89,68.44l-5.37,3.58L0,481.93,523.45,356.19S502.57,349.33,501.53,337.65Z"/></g></g></svg>