<svg xmlns="http://www.w3.org/2000/svg" viewBox="0 0 185.8 148.12"><defs><style>.cls-1{fill:#f0fff4;}</style></defs><g id="Layer_2" data-name="Layer 2"><g id="Text_boxes" data-name="Text boxes"><path class="cls-1" d="M54.3,57.22a5.44,5.44,0,0,1-6.84,3.54L38.8,58a5.45,5.45,0,0,1-3.54-6.84l8.3-26.06a5.44,5.44,0,0,1,6.84-3.54l8.66,2.75a5.45,5.45,0,0,1,3.54,6.84Z"/><path class="cls-1" d="M93.36,21.25A11.59,11.59,0,0,0,80.64,1.87,11.59,11.59,0,0,0,93.36,21.25"/><path class="cls-1" d="M110,108.84a7.33,7.33,0,0,0,1-3.59L111.11,75c0-.16,0-.3,0-.45s0-.25,0-.37,0-.12,0-.18a7.58,7.58,0,0,0-6.75-6.64l-2.34-.23,3.81-10.06a6.19,6.19,0,0,0,5.72-6.86,6.29,6.29,0,0,0-6.3-5.52H90.7c2.07-6.81,2.47-15.15-5.52-18.66-7.2-3.16-16.11.81-20.33,14.26L38,124a7.59,7.59,0,0,0,3.93,9.14L0,148.12H185.8V81.77Zm-9.68,3.28-18.09,6.45,13.4-35.29h.08l0,21.72A7.53,7.53,0,0,0,100.3,112.12Zm-15-55h16.06l-3.64,9.59L81.65,65.12ZM52.06,129.28,72.17,85.63l19.09-1.9-13.9,36.61-25.35,9Z"/></g></g></svg>