<svg xmlns="http://www.w3.org/2000/svg" viewBox="0 0 680 3560.3"><defs><style>.cls-1{fill:#646640;}.cls-2{fill:#508c7f;}.cls-3{fill:#278558;}.cls-4{fill:#c8bfd9;}.cls-5{fill:#c0a6cf;}.cls-6{fill:#70a37a;}.cls-7{fill:#7ea385;}</style></defs><g id="Layer_2" data-name="Layer 2"><g id="Top_trees" data-name="Top trees"><path class="cls-1" d="M164.16,262.24V179.17a52.85,52.85,0,0,0,12.89,20.51v62.56Z"/><path class="cls-2" d="M236.14,214.62a136.5,136.5,0,0,1-27.22-15C223.24,201,239,191.7,239,191.7,200.33,187.4,193.88,176,193.88,176c20.05,2.86,40.11-3.58,40.11-3.58a167.74,167.74,0,0,1-48-31.51c14.51,1.07,32.94-2.15,32.94-2.15-25.07-3.58-35.09-33.66-35.09-33.66,3.58,2.15,22.2,2.86,22.2,2.86-20.05-6.44-38-58-38-58-6.44,46.55-32.22,64.46-32.22,64.46,11.45,0,21.48-5.73,21.48-5.73s-16.83,34.73-37.6,37.6c0,0,19-.66,29.36-3.38,0,0-8.23,16.63-46.9,29.52,0,0,25.78,7.87,36.52,2.14,0,0-5,10-37.24,22.92,0,0,14.32,3.58,32.94-2.86a174.9,174.9,0,0,1-25.78,24.35s28.65-5,39.39-17.19c0,0-10.74,17.19-17.9,21.48,0,0,27.93-9.31,31.51-17.9,0,0,1.07,13.25,4.65,20.41,0,0,1.43-14.32,8.24-20.41,7.16,10,35.8,13.61,35.8,13.61-10-5.73-16.47-17.19-16.47-17.19C202.48,214.62,236.14,214.62,236.14,214.62Z"/><path class="cls-1" d="M316.86,306.24V240.41s3.29,8.74,13.16,16.25v49.58Z"/><path class="cls-2" d="M392.93,249.92a139.23,139.23,0,0,1-27.79-15.37c16.09,6.59,54.86,9.51,54.86,9.51-41.7-8.78-78.27-50.47-78.27-50.47,14.63,5.12,39.5,9.51,39.5,9.51-29.26-12.44-44.62-40.24-44.62-40.24a52.47,52.47,0,0,0,26.33-5.12c-25.6-3.65-32.19-31.45-32.19-31.45,3.66,2.19,22.68,2.92,22.68,2.92C333,122.63,318.32,67,318.32,67c-.67,28.6-30.72,69.49-30.72,69.49,13.89-4.39,20.48-6.58,20.48-6.58s-15,36.21-36.21,39.13c0,0,19.38-.67,30-3.44,0,0-11.34,31.61-39.14,46.24,0,0,27.07-1.47,38-7.32,0,0-35.84,34.38-68.76,47.55,0,0,36.57-8.36,49.74-16.83,0,0-2.92,6.59-19,19,0,0,29.26-5.12,40.24-17.55,0,0-11,17.55-18.29,21.94,0,0,28.53-9.51,32.19-18.28,0,0,5.12,19,25.23,19.38,0,0-9.51-7.31-12.07-19.38,7.32,10.24,36.58,13.89,36.58,13.89-10.24-5.85-16.83-17.55-16.83-17.55C358.55,249.92,392.93,249.92,392.93,249.92Z"/><path class="cls-1" d="M114.93,222.24V145.52a48.68,48.68,0,0,0,11.9,18.94v57.78Z"/><path class="cls-2" d="M153,151.78c14.55,6.81,37-3,37-3-37.7-9.08-47.62-16.64-47.62-16.64,18.52,3,39-1.51,39-1.51-29.76-4.54-45-33.27-45-33.27,13.27,2.49,28.14.82,28.14.82C141.79,92,135,59.47,135,59.47c3.11,2.59,20.18,5.09,20.18,5.09C137.31,55.9,125.07,0,125.07,0c-9.75,48.35-34.94,64.76-34.94,64.76,10.54,1.07,20.24-4,20.24-4S92,95.69,72.69,96.76c0,0,17.51,1.09,27.29-.79,0,0-6.55,18.76-42.27,32.37,0,0,23.81,8.32,33.74,2.27,0,0-15.22,14.37-48.95,21.17,0,0,27.78,6.81,45,0-.49,4.23-13.31,17-27.12,23.44,0,0,29.76-3,39.68-15.88,0,0-9.92,18.15-16.53,22.69,0,0,20.17-9.45,29.1-18.91,0,0-.33,15.47-3.64,19.44a39.91,39.91,0,0,0,3.64-2.8c3.81-3.26,9.57-9.14,11.91-16.64,1.38,2.21,11.24,20.42,17.2,23.44-5.3-15.12-6-18.14-6-28,13.89,16.63,21.83,18.9,21.83,18.9-9.26-6.05-13.23-22.68-13.23-22.68,12.57,10.58,37,18.14,37,18.14C166.85,166.15,153,151.78,153,151.78Z"/><rect class="cls-1" x="52.59" y="148.41" width="9.16" height="39.83"/><path class="cls-2" d="M82.12,145.44c10.53,4.12,33.88,5.49,33.88,5.49-19.23-4.58-39.83-21.52-39.83-21.52,9.61,4.58,26.55,6.41,26.55,6.41-17.85-7.32-30.21-29.3-30.21-29.3,5.49,5.5,14.65,8.7,14.65,8.7C73.42,105.15,68.85,85,68.85,85c5,4.12,12.36,6.86,12.36,6.86-8.7-6-16.94-24.26-16.94-24.26,5.49,1.83,8.7.92,8.7.92-10.53-7.79-16-38.92-16-38.92S52.36,63,38.86,72.42c0,0,6.64-2.06,8.93-3.44a34.25,34.25,0,0,1-11,24s7.34-3.8,10.09-7.47c0,0-5.49,20.61-18.31,33,0,0,13.28-6,16.94-11,0,0-7.33,16.48-26.55,30.67,0,0,16.93-4.58,23.34-10.53,0,0-16.94,22.44-34.79,30.22,0,0,19.69-1.38,28.38-8.7,0,0,0,11.9-6.41,16,0,0,15.57-3.66,19.23-13.27,0,0,1.83,8.69-2.74,15.56,0,0,15.1-9.15,16-14.65,0,0,8.87,10.33,21.06,14.65a64.14,64.14,0,0,1-8.7-15.56s16.48,9.15,25.18,9.61C99.52,161.46,86.24,156,82.12,145.44Z"/></g><g id="Main_layer" data-name="Main layer"><polygon class="cls-3" points="664 2384.24 619 2346.24 580 1022.24 553.95 987.63 498.76 972.2 469.4 250.89 2 156.24 2 3394.24 680 3394.24 664 2384.24"/><polygon class="cls-3" points="483 3554.05 465.2 2589.87 445.64 2583.58 420.06 2637.68 385.45 2656.43 354.08 2938.25 317.73 2916.13 224.27 2201.08 2 2186.24 1.94 3560.3 483 3554.05"/><polygon class="cls-3" points="268.77 1970.24 253 1923.24 228 1970.24 209.24 1905.54 216.05 1413.55 241.56 1392.88 265.38 1505.34 312.69 1574.37 377.62 926.08 1 790.3 1.5 2185.41 292.84 2200.39 268.77 1970.24"/><path class="cls-3" d="M663,2379.24l-45-38-15-3.94v-.06l-86.48-22.57s-4.52-27.43-34-60.27-136.06-53.58-136.06-53.58L.92,2147v53.85C81.85,2206.4,260.27,2295,260.27,2295c18.27,43.73,183.73,67.27,195,69.15,43.95,25,123.14,31.52,151.73,33.11l.21.47,56.42,11Z"/><path class="cls-3" d="M579.66,1048.64,577,977.24s-21-24-35.57-46.45c-54-15-161.8-46.44-251.35-81.55-125-49-289.08-85-289.08-85V816l147.63,59.36h0c78.55,41.08,151.45,92.91,202.45,121.91s154.46,21.59,154.46,21.59h0Z"/><path class="cls-3" d="M0,168.33s95,27.91,124.41,34.91,122.8,17.47,122.8,17.47C308.43,231.17,347,250.24,373,250.24s54-8,54-8l-426-87"/><polygon class="cls-4" points="664 2384.24 619 2346.24 580 1022.24 553.95 987.63 498.76 972.2 469.4 250.89 2 156.24 2 3394.24 680 3394.24 664 2384.24"/><polygon class="cls-5" points="483 3554.05 465.2 2589.87 445.64 2583.58 420.06 2637.68 385.45 2656.43 354.08 2938.25 317.73 2916.13 224.27 2201.08 2 2186.24 1.94 3560.3 483 3554.05"/><polygon class="cls-5" points="268.77 1970.24 253 1923.24 228 1970.24 209.24 1905.54 216.05 1413.55 241.56 1392.88 265.38 1505.34 312.69 1574.37 377.62 926.08 1 790.3 1.5 2185.41 292.84 2200.39 268.77 1970.24"/><path class="cls-6" d="M663,2379.24l-45-38-15-3.94v-.06l-86.48-22.57s-4.52-27.43-34-60.27-136.06-53.58-136.06-53.58L.92,2147v53.85C81.85,2206.4,260.27,2295,260.27,2295c18.27,43.73,183.73,67.27,195,69.15,43.95,25,123.14,31.52,151.73,33.11l.21.47,56.42,11Z"/><path class="cls-7" d="M579.66,1048.64,577,977.24s-21-24-35.57-46.45c-54-15-161.8-46.44-251.35-81.55-125-49-289.08-85-289.08-85V816l147.63,59.36h0c78.55,41.08,151.45,92.91,202.45,121.91s154.46,21.59,154.46,21.59h0Z"/><path class="cls-6" d="M0,168.33s95,27.91,124.41,34.91,122.8,17.47,122.8,17.47C308.43,231.17,347,250.24,373,250.24s54-8,54-8l-426-87"/></g></g></svg>