<svg xmlns="http://www.w3.org/2000/svg" viewBox="0 0 921.5 3695.14"><defs><style>.cls-1{fill:#646640;}.cls-2{fill:#508c7f;}.cls-3{fill:#278558;}.cls-4{fill:#c8bfd9;}.cls-5{fill:#c0a6cf;}.cls-6{fill:#70a37a;}</style></defs><g id="Layer_2" data-name="Layer 2"><g id="Top_trees" data-name="Top trees"><path class="cls-1" d="M845.24,236.73V188.05a30.31,30.31,0,0,0,9.73,12v36.66Z"/><path class="cls-2" d="M901.49,195.09a102.87,102.87,0,0,1-20.55-11.36c11.89,4.86,40.56,7,40.56,7-30.83-6.49-57.87-37.32-57.87-37.32,10.82,3.79,29.2,7,29.2,7-21.63-9.19-33-29.75-33-29.75a38.86,38.86,0,0,0,19.47-3.78c-18.93-2.71-23.79-23.26-23.79-23.26,2.7,1.62,16.76,2.16,16.76,2.16-15.14-4.86-26-46-26-46-.49,21.15-22.71,51.38-22.71,51.38,10.27-3.24,15.14-4.87,15.14-4.87S827.66,133.16,812,135.32c0,0,14.33-.5,22.17-2.55,0,0-8.38,23.37-28.93,34.19,0,0,20-1.08,28.12-5.41,0,0-26.5,25.42-50.84,35.16,0,0,27-6.18,36.78-12.44,0,0-2.17,4.87-14.06,14.06,0,0,21.63-3.79,29.74-13,0,0-8.11,13-13.52,16.23,0,0,21.1-7,23.8-13.53,0,0,3.79,14.07,18.66,14.34A26.94,26.94,0,0,1,855,188.05c5.41,7.58,27,10.28,27,10.28-7.57-4.33-12.44-13-12.44-13C876.07,195.09,901.49,195.09,901.49,195.09Z"/><path class="cls-1" d="M649.72,280.73v-56s2.8,7.44,11.2,13.84v42.19Z"/><path class="cls-2" d="M714.46,232.79a118.4,118.4,0,0,1-23.65-13.07c13.69,5.6,46.69,8.09,46.69,8.09-35.49-7.47-66.61-42.95-66.61-42.95,12.45,4.35,33.61,8.09,33.61,8.09-24.9-10.58-38-34.24-38-34.24a44.73,44.73,0,0,0,22.41-4.36c-21.79-3.11-27.39-26.77-27.39-26.77,3.11,1.87,19.3,2.49,19.3,2.49C663.41,124.47,651,77.15,651,77.15c-.56,24.34-26.14,59.15-26.14,59.15,11.82-3.74,17.43-5.61,17.43-5.61S629.48,161.51,611.43,164c0,0,16.5-.57,25.53-2.93,0,0-9.65,26.9-33.31,39.35,0,0,23-1.25,32.37-6.23,0,0-30.5,29.26-58.52,40.47,0,0,31.12-7.11,42.33-14.32,0,0-2.49,5.61-16.18,16.19,0,0,24.9-4.36,34.24-14.94,0,0-9.34,14.94-15.57,18.67,0,0,24.29-8.09,27.4-15.56,0,0,4.36,16.19,21.48,16.5,0,0-8.1-6.23-10.28-16.5,6.23,8.72,31.13,11.83,31.13,11.83-8.71-5-14.32-14.94-14.32-14.94C685.2,232.79,714.46,232.79,714.46,232.79Z"/><path class="cls-1" d="M720.43,259.73V183A48.68,48.68,0,0,0,732.33,202v57.78Z"/><path class="cls-2" d="M758.46,189.27c14.55,6.81,37-3,37-3-37.7-9.08-47.62-16.64-47.62-16.64,18.52,3,39-1.51,39-1.51-29.76-4.54-45-33.27-45-33.27,13.27,2.49,28.14.82,28.14.82C747.29,129.53,740.54,97,740.54,97c3.11,2.59,20.18,5.09,20.18,5.09-17.91-8.66-30.15-64.56-30.15-64.56-9.75,48.35-34.94,64.76-34.94,64.76,10.54,1.07,20.24-4,20.24-4s-18.34,34.94-37.68,36c0,0,17.51,1.09,27.29-.79,0,0-6.55,18.76-42.27,32.37,0,0,23.81,8.32,33.74,2.27,0,0-15.22,14.37-49,21.17,0,0,27.78,6.81,45,0-.49,4.23-13.31,17-27.12,23.44,0,0,29.76-3,39.68-15.88,0,0-9.92,18.15-16.53,22.69,0,0,20.17-9.46,29.1-18.91,0,0-.33,15.47-3.64,19.43a37.74,37.74,0,0,0,3.64-2.8c3.81-3.25,9.57-9.13,11.91-16.63,1.38,2.21,11.24,20.42,17.2,23.44-5.3-15.12-6-18.14-6-28,13.89,16.63,21.83,18.9,21.83,18.9-9.26-6-13.23-22.68-13.23-22.68,12.57,10.58,37,18.14,37,18.14C772.35,203.64,758.46,189.27,758.46,189.27Z"/><rect class="cls-1" x="781.87" y="173.55" width="13.38" height="58.18"/><path class="cls-2" d="M825,169.2c15.38,6,49.49,8,49.49,8-28.09-6.69-58.18-31.44-58.18-31.44,14,6.69,38.79,9.37,38.79,9.37C829,144.46,811,112.35,811,112.35c8,8,21.4,12.71,21.4,12.71-20.07-14.71-26.75-44.14-26.75-44.14,7.35,6,18,10,18,10-12.7-8.69-24.74-35.44-24.74-35.44,8,2.67,12.71,1.34,12.71,1.34C796.25,45.48,788.23,0,788.23,0s-6.69,48.82-26.42,62.53c0,0,9.7-3,13-5,0,0,.62,19.14-16.07,35,0,0,10.72-5.56,14.73-10.91,0,0-8,30.1-26.75,48.15,0,0,19.4-8.69,24.75-16.05,0,0-10.7,24.08-38.79,44.81,0,0,24.74-6.69,34.11-15.38,0,0-24.75,32.77-50.83,44.14,0,0,28.76-2,41.46-12.71,0,0,0,17.39-9.36,23.41,0,0,22.74-5.35,28.09-19.4,0,0,2.67,12.71-4,22.74,0,0,22.07-13.37,23.4-21.4,0,0,13,15.09,30.77,21.4,0,0-6.69-8-12.71-22.74,0,0,24.08,13.38,36.78,14.05C850.42,192.61,831,184.58,825,169.2Z"/></g><g id="Main_layer" data-name="Main layer"><polygon class="cls-3" points="160.62 325.56 131.5 1797.73 57.5 1815.73 0 3505.73 906 3505.73 906 185.6 160.62 325.56"/><polygon class="cls-3" points="906.5 185.73 425.5 276.73 553.16 1007.24 569.5 775.73 602.1 759.98 706.55 1523.95 743.5 1596.73 791.5 1423.73 828.5 1486.73 870.5 2532.73 906 2587.27 906.5 185.73"/><path class="cls-3" d="M44.08,2210.12,97,2212.71l84.76-37.19,192.86-6,122.92-15.8,86-23,36-18s-28-8-94-16-86.12,27.32-174.56,25.66-166.14,18.14-214.29,31.74-92.57,56-92.57,56"/><path class="cls-3" d="M786.7,2861.08l-103.82-46.77L619.5,2112.73H518.4l-36,36.28-98.25,13.61s-220,8.82-229.32,18.47S97,2212.71,97,2212.71l284.8,8.22-8.39,313.6,29.15,111,45.35-344.2,60.63-29.47,69.13,1413.86,280.9,9.46Z"/><path class="cls-3" d="M906.5,185.73,293,300.71s5.55,13,42.55,9,126.6-30,160.3-29,134.7-1,161.7-12.48l14.33-20.14L906.5,194.27v-8.54"/><polygon class="cls-4" points="160.62 325.56 131.5 1797.73 57.5 1815.73 0 3505.73 906 3505.73 906 185.6 160.62 325.56"/><polygon class="cls-5" points="906.5 185.73 425.5 276.73 553.16 1007.24 569.5 775.73 602.1 759.98 706.55 1523.95 743.5 1596.73 791.5 1423.73 828.5 1486.73 870.5 2532.73 906 2587.27 906.5 185.73"/><path class="cls-6" d="M44.08,2210.12,97,2212.71l84.76-37.19,192.86-6,122.92-15.8,86-23,36-18s-28-8-94-16-86.12,27.32-174.56,25.66-166.14,18.14-214.29,31.74-92.57,56-92.57,56"/><path class="cls-5" d="M786.7,2861.08l-103.82-46.77L619.5,2112.73H518.4l-36,36.28-98.25,13.61s-220,8.82-229.32,18.47S97,2212.71,97,2212.71l284.8,8.22-8.39,313.6,29.15,111,45.35-344.2,60.63-29.47,69.13,1413.86,280.9,9.46Z"/><path class="cls-6" d="M906.5,185.73,293,300.71s5.55,13,42.55,9,126.6-30,160.3-29,134.7-1,161.7-12.48l14.33-20.14L906.5,194.27v-8.54"/></g></g></svg>