<svg xmlns="http://www.w3.org/2000/svg" viewBox="0 0 130.13 273.23"><defs><style>.cls-1{fill:#f0fff4;}</style></defs><g id="Layer_2" data-name="Layer 2"><g id="Text_boxes" data-name="Text boxes"><path class="cls-1" d="M121.6,0a1.22,1.22,0,0,0-1.17.32l-41,42c-.14,0-.29,0-.43.06-3.24,1.18-4.3,2.93-4.28,4.77l-.9.92c-2.72-6-8-10.19-14.25-10.19-8.93,0-16.17,8.52-16.17,19s7.24,19,16.17,19,16.18-8.52,16.18-19A21.78,21.78,0,0,0,75,51.68l1-.75a14.4,14.4,0,0,0,1.81,2.24C91.61,67.05,95,72.93,95,72.93,82,93.33,78.15,83.62,59.5,83.62c-26.3,0-33.88-.94-49.82,52.53-10.55,35.42-11.77,45.1-7,47.09s7.75.29,9.67-5.06c8-22.33,25.43-79.21,25.43-50.77,0,40,0,44.76-2.42,109.72l-.26,6.47c-.26,7.64-.53,15-.83,23-.3,7.82,14.66,10.21,15.6-1.31.51-6.18,2.45-36.8,2.45-36.8h0c1.81-32.48,2.17-51,6.73-51,4.84,0,5.33,18.24,7,51h0s1.75,30.91,2.18,36.8c.83,11.53,15.81,9.13,15.61,1.31-.21-8-.59-23-.59-23L83,237.13c-1.79-65-2.31-72.27-2.73-109.72-.14-12,1.87-14.11,7.46-19.7,5.89-5.9,17.66-19.13,20.72-23.75,4.6-6.92,7.09-13.86-6.9-26.13-6.84-6-11.86-11.38-16-14l44.11-32.89a1.22,1.22,0,0,0,.46-1.17C129.14,4.34,126.82,1.47,121.6,0Z"/></g></g></svg>