<svg xmlns="http://www.w3.org/2000/svg" viewBox="0 0 179.94 178.34"><defs><style>.cls-1{fill:#f0fff4;}</style></defs><g id="Layer_2" data-name="Layer 2"><g id="Text_boxes" data-name="Text boxes"><path class="cls-1" d="M118.69,57.45a178.74,178.74,0,0,1-31.5-2.61l-3.63-.74a36.3,36.3,0,0,0,70.37,0l-3.63.74A178.16,178.16,0,0,1,118.69,57.45Z"/><path class="cls-1" d="M87.59,51.51a174.15,174.15,0,0,0,30.92,2.56,174.19,174.19,0,0,0,30.93-2.56c15.09-2.81,21.86-7.11,21.86-10.12,0-2.25-3.94-5.72-14.84-8.57v4.09c0,5.6-20.63,6.75-37.92,6.75a208.26,208.26,0,0,1-25.1-1.24C84.73,41.3,81,39.74,80.71,37.14a.37.37,0,0,1,0-.21v-.11h0V32.73c-10.89,2.85-14.82,6.34-14.82,8.57C65.8,44.4,72.54,48.7,87.59,51.51Z"/><path class="cls-1" d="M84.44,30.79a38,38,0,0,0-.2,3.85v1.91c1.48,1.57,13.24,3.79,34.54,3.79s33.05-2.24,34.54-3.79V34.64a35.57,35.57,0,0,0-.21-3.87,34.6,34.6,0,0,0-68.78,0Z"/><path class="cls-1" d="M179.94,167.08s0-54.75-35.58-72.93h0l-11.45,19.7h2.62a1.71,1.71,0,0,1,1.69,1.68v49.61a1.69,1.69,0,0,1-1.68,1.69H101.63a1.66,1.66,0,0,1-1.69-1.64V115.48a3,3,0,0,1,1.92-2h2.67L93.08,94.24h0c-35.62,18.07-35.66,72.84-35.66,72.84A172.31,172.31,0,0,0,179.94,167.08Z"/><rect class="cls-1" x="103.47" y="116.99" width="30.22" height="46.31"/><path class="cls-1" d="M108.4,113.85H129l12.33-21a58.85,58.85,0,0,0-45.14,0Z"/><polygon class="cls-1" points="0 43.32 38.32 64.88 38.32 21.76 0 43.32"/><rect class="cls-1" x="41.46" y="22.4" width="7.85" height="120.49"/></g></g></svg>